<svg version="1.0" xmlns="http://www.w3.org/2000/svg" viewBox="0 0 1270 378" fill="#151515"><path d="M0 189v189h1271V0H0v189zM41.9 28.4c.8.9 1.1 6.1.9 16.2l-.3 14.9-9.9.3c-6.4.2-10.3-.1-11.2-.9-1.7-1.4-2-26.9-.4-30 .9-1.7 2.2-1.9 10.4-1.9 6.8 0 9.7.4 10.5 1.4zm63.9-.2c1.8 1.8 1.7 29.2-.2 30.7-.9.8-4.8 1.1-11.2.9l-9.9-.3-.3-14.9c-.2-10.1.1-15.3.9-16.2 1.5-1.8 18.9-2 20.7-.2zm63-.4c.9.7 1.2 4.6 1 16.3l-.3 15.4-10 .3c-8.5.2-10.2 0-11.2-1.5-.9-1.1-1.3-5.8-1.3-14.9 0-16.6-.1-16.4 11.8-16.4 4.8 0 9.3.4 10 .8zm64 .4c1.7 1.7 1.7 28.9 0 30.6-.8.8-4.6 1.2-10.3 1.2-5.7 0-9.5-.4-10.3-1.2-.8-.8-1.2-5.7-1.2-15.3 0-9.6.4-14.5 1.2-15.3 1.6-1.6 19-1.6 20.6 0zm63.6.4c2.1 2 2.3 27 .3 29.7-1 1.5-2.7 1.7-11.2 1.5l-10-.3-.3-15.4c-.2-11.7.1-15.6 1-16.3.7-.4 5.2-.8 10-.8 6.6 0 9 .4 10.2 1.6zm63.4-.4c1.3 1.3 1.8 27.1.6 30.2-.5 1.3-2.4 1.6-10.3 1.6-6.2 0-10.1-.4-10.9-1.2-1.7-1.7-1.7-28.9 0-30.6 1.6-1.6 19-1.6 20.6 0zm64.2.7c1.6 3.1 1.3 28.6-.4 30-.9.8-4.8 1.1-11.2.9l-9.9-.3-.3-14.9c-.2-10.1.1-15.3.9-16.2.8-1 3.7-1.4 10.5-1.4 8.2 0 9.5.2 10.4 1.9zm62.9-.5c.8.9 1.1 6.1.9 16.2l-.3 14.9-9.9.3c-6.4.2-10.3-.1-11.2-.9-1.9-1.5-2-28.9-.2-30.7 1.8-1.8 19.2-1.6 20.7.2zm63.9-.2c1.8 1.8 1.7 29.2-.2 30.7-.9.8-4.8 1.1-11.2.9l-9.9-.3-.3-14.9c-.2-10.1.1-15.3.9-16.2 1.5-1.8 18.9-2 20.7-.2zm63.1.2c.8.9 1.1 6.1.9 16.2l-.3 14.9-10 .3c-8.5.2-10.2 0-11.2-1.5-1.6-2.1-1.8-26.5-.3-29.4.9-1.7 2.2-1.9 10.4-1.9 6.8 0 9.7.4 10.5 1.4zm63.9-.2c.8.8 1.2 5.7 1.2 15.3 0 9.6-.4 14.5-1.2 15.3-.8.8-4.7 1.2-10.9 1.2-7.9 0-9.8-.3-10.3-1.6-1.2-3.1-.7-28.9.6-30.2 1.6-1.6 19-1.6 20.6 0zm63-.4c.9.7 1.2 4.6 1 16.3l-.3 15.4-10 .3c-8.5.2-10.2 0-11.2-1.5-.9-1.1-1.3-5.8-1.3-14.9 0-16.6-.1-16.4 11.8-16.4 4.8 0 9.3.4 10 .8zm64 .4c.8.8 1.2 5.7 1.2 15.3 0 9.6-.4 14.5-1.2 15.3-.8.8-4.6 1.2-10.3 1.2-5.7 0-9.5-.4-10.3-1.2-.8-.8-1.2-5.7-1.2-15.3 0-9.6.4-14.5 1.2-15.3 1.6-1.6 19-1.6 20.6 0zm63.6.4c2.1 2 2.3 27 .3 29.7-1 1.5-2.7 1.7-11.2 1.5l-10-.3-.3-15.4c-.2-11.7.1-15.6 1-16.3.7-.4 5.2-.8 10-.8 6.6 0 9 .4 10.2 1.6zm63.5-.2c.8.9 1.1 6.1.9 16.2l-.3 14.9-9.9.3c-6.4.2-10.3-.1-11.2-.9-1.9-1.5-2-28.9-.2-30.7 1.8-1.8 19.2-1.6 20.7.2zm64.1.5c1.6 3.1 1.3 28.6-.4 30-.9.8-4.8 1.1-11.2.9l-9.9-.3-.3-14.9c-.2-10.1.1-15.3.9-16.2.8-1 3.7-1.4 10.5-1.4 8.2 0 9.5.2 10.4 1.9zm62.9-.5c.8.9 1.1 6.1.9 16.2l-.3 14.9-9.9.3c-6.4.2-10.3-.1-11.2-.9-1.7-1.4-2-26.9-.4-30 .9-1.7 2.2-1.9 10.4-1.9 6.8 0 9.7.4 10.5 1.4zm63.9-.2c1.8 1.8 1.7 29.2-.2 30.7-.9.8-4.8 1.1-11.2.9l-9.9-.3-.3-14.9c-.2-10.1.1-15.3.9-16.2 1.5-1.8 18.9-2 20.7-.2zm63-.4c.9.7 1.2 4.6 1 16.3l-.3 15.4-10 .3c-8.5.2-10.2 0-11.2-1.5-.9-1.1-1.3-5.8-1.3-14.9 0-16.6-.1-16.4 11.8-16.4 4.8 0 9.3.4 10 .8zm64 .4c1.7 1.7 1.7 28.9 0 30.6-.8.8-4.6 1.2-10.3 1.2-5.7 0-9.5-.4-10.3-1.2-1.7-1.7-1.7-28.9 0-30.6 1.6-1.6 19-1.6 20.6 0zM306 188.5V301H6V188.7c0-61.8.2-112.6.4-112.8.2-.2 67.7-.3 150-.1L306 76v112.5zm318 .1V301l-150.2-.2-150.3-.3-.3-112.2L323 76l149.7-.2c82.4-.2 150.1-.2 150.6 0 .4.2.7 50.9.7 112.8zm317.5-.4v112.3h-300l-.3-111.5c-.1-61.3 0-112 .2-112.5.2-.7 51-.9 150.2-.8l149.9.3v112.2zm318 0v112.3h-300l-.3-111.5c-.1-61.3 0-112 .2-112.5.2-.7 51-.9 150.2-.8l149.9.3v112.2zM41.8 320.2c.8.8 1.2 5.8 1.2 16 0 17.4.4 16.8-11.6 16.8-11.3 0-11.4-.1-11.4-17.1 0-17.1-.2-16.9 11.9-16.9 5.4 0 9.1.4 9.9 1.2zm63.6.4c1.3 1.2 1.6 4.1 1.6 15.4 0 17.1.1 17-11.1 17-12.3 0-11.9.6-11.9-16.8 0-10.2.4-15.2 1.2-16 1.9-1.9 18.3-1.6 20.2.4zm63.4-.4c.8.8 1.2 5.8 1.2 16 0 17.3.3 16.8-11.2 16.8-11.6 0-11.8-.2-11.8-16.7 0-17.3 0-17.3 12-17.3 5.3 0 9.1.5 9.8 1.2zm63.3-.2c1.7 1 1.9 2.3 1.9 16 0 17.6.4 17-11.5 17s-11.5.6-11.5-17c0-13.1.2-15 1.8-15.9 2.2-1.4 16.8-1.4 19.3-.1zm64.3 1.2c1.3 1.8 1.6 5.1 1.6 15 0 16.2-.4 16.8-11.6 16.8-11.8 0-11.4.5-11.4-16.8 0-10.2.4-15.2 1.2-16 .8-.8 4.5-1.2 9.9-1.2 7.9 0 8.9.2 10.3 2.2zm62.7-1.2c1.7 1 1.9 2.3 1.9 16 0 17.6.4 17-11.9 17-11.2 0-11.1.2-11.1-17.5 0-12.7.2-14.5 1.8-15.4 2.2-1.4 16.8-1.4 19.3-.1zm64.3.6c1.3 1.2 1.6 4.1 1.6 15.1 0 17.2-.1 17.3-11.2 17.3-12.2 0-11.8.6-11.8-16.8 0-10.2.4-15.2 1.2-16 1.9-1.9 18.3-1.6 20.2.4zm63.4-.4c.8.8 1.2 5.8 1.2 16 0 17.4.4 16.8-11.9 16.8-11.2 0-11.1.1-11.1-17 0-17.3-.2-17 11.9-17 5.4 0 9.1.4 9.9 1.2zm63.6.4c1.3 1.2 1.6 4.1 1.6 15.4 0 17.1.1 17-11.1 17-12.3 0-11.9.6-11.9-16.8 0-10.2.4-15.2 1.2-16 1.9-1.9 18.3-1.6 20.2.4zm63.4-.4c.8.8 1.2 5.8 1.2 16 0 17.4.4 16.8-11.6 16.8-11.3 0-11.4-.1-11.4-17.1 0-17.1-.2-16.9 11.9-16.9 5.4 0 9.1.4 9.9 1.2zm63.3-.2c1.7 1 1.9 2.3 1.9 15.5 0 17.7.1 17.5-11.1 17.5-12.3 0-11.9.6-11.9-17 0-13.1.2-15 1.8-15.9 2.2-1.4 16.8-1.4 19.3-.1zm63.7.2c.8.8 1.2 5.8 1.2 16 0 17.3.4 16.8-11.4 16.8-11.2 0-11.6-.6-11.6-16.8 0-17 .1-17.2 11.9-17.2 5.4 0 9.1.4 9.9 1.2zm63.3-.2c1.7 1 1.9 2.3 1.9 16 0 17.6.4 17-11.9 17-11.2 0-11.1.2-11.1-17.5 0-12.7.2-14.5 1.8-15.4 2.2-1.4 16.8-1.4 19.3-.1zm64.3.6c1.3 1.2 1.6 4.1 1.6 15.4 0 16.8-.1 17-11.8 17-11.5 0-11.2.5-11.2-16.8 0-10.2.4-15.2 1.2-16 1.9-1.9 18.3-1.6 20.2.4zm63.4-.4c.8.8 1.2 5.8 1.2 16 0 17.4.4 16.8-11.9 16.8-11.2 0-11.1.1-11.1-17 0-17.3-.2-17 11.9-17 5.4 0 9.1.4 9.9 1.2zm63.6.4c1.3 1.2 1.6 4.1 1.6 15.1 0 17.2-.1 17.3-11.2 17.3-12.2 0-11.8.6-11.8-16.8 0-10.2.4-15.2 1.2-16 1.9-1.9 18.3-1.6 20.2.4zm63.4-.4c.8.8 1.2 5.8 1.2 16 0 17.4.4 16.8-11.6 16.8-11.3 0-11.4-.1-11.4-17.1 0-17.1-.2-16.9 11.9-16.9 5.4 0 9.1.4 9.9 1.2zm63.6.4c1.3 1.2 1.6 4.1 1.6 15.4 0 17.1.1 17-11.1 17-12.3 0-11.9.6-11.9-16.8 0-10.2.4-15.2 1.2-16 1.9-1.9 18.3-1.6 20.2.4zm63.4-.4c.8.8 1.2 5.8 1.2 16 0 17.3.4 16.8-11.4 16.8-11.2 0-11.6-.5-11.6-17.2 0-16.8 0-16.8 12-16.8 5.3 0 9.1.5 9.8 1.2zm63.3-.2c1.7 1 1.9 2.3 1.9 16 0 17.6.4 17-11.5 17s-11.5.6-11.5-17c0-13.1.2-15 1.8-15.9 2.2-1.4 16.8-1.4 19.3-.1z"/></svg>
